# xmcd
#
# Track frame offsets:
#	150
#	13062
#	39296
#	60201
#	75078
#	92023
#	108339
#	125402
#	142982
#	156605
#	175978
#	192488
#	214397
#	230123
#
# Disc length: 3251 seconds
#
# Revision: 1
# Processed by: cddbd v1.5.1PL2 Copyright (c) Steve Scherf et al.
# Submitted via: audiograbber 1.83.01
#
DISCID=b80cb10e
DTITLE=Olga - Blues Babe
DYEAR=2003
DGENRE=Blues
TTITLE0=One Good Thing
TTITLE1=Gotta Put My Hands On You
TTITLE2=My Baby Blue
TTITLE3=The Way We Were
TTITLE4=Leaving So Soon
TTITLE5=White Shirts
TTITLE6=I'm Off Your Sugar
TTITLE7=Can't Keep a Good Girl Down
TTITLE8=Ain't It True (My Love For You)
TTITLE9=O Man, I Picked The Wrong Brother Again
TTITLE10=I See Through You
TTITLE11=Mama's Boy
TTITLE12=Please Lay Me Down
TTITLE13=219 Train
EXTD=
EXTT0=
EXTT1=
EXTT2=
EXTT3=
EXTT4=
EXTT5=
EXTT6=
EXTT7=
EXTT8=
EXTT9=
EXTT10=
EXTT11=
EXTT12=
EXTT13=
PLAYORDER=
